<?xml version="1.0" encoding="iso-8859-1"?>
<!-- Uploaded to: SVG Repo, www.svgrepo.com, Generator: SVG Repo Mixer Tools -->
<svg height="800px" width="800px" version="1.1" id="Layer_1" xmlns="http://www.w3.org/2000/svg" xmlns:xlink="http://www.w3.org/1999/xlink" 
	 viewBox="0 0 512 512" xml:space="preserve">
<polygon style="fill:#0084FF;" points="454.662,117.8 454.659,394.201 57.341,394.201 57.338,117.8 "/>
<g>
	<polygon style="fill:#5AB8FF;" points="454.662,394.201 454.659,491.68 57.341,491.68 57.338,394.201 	"/>
	<polygon style="fill:#5AB8FF;" points="454.662,20.321 454.659,117.8 57.341,117.8 57.338,20.321 	"/>
</g>
<path style="fill:#FF1A1A;" d="M146.667,394.201v-10.34c0.007-40.841,33.123-73.943,73.965-73.933h70.764
	c40.842,0.007,73.944,33.135,73.937,73.978v10.295H146.667z"/>
<path style="fill:#FCDDC9;" d="M256.013,143.79c39.019,0.007,70.641,31.641,70.633,70.658c-0.01,39.015-31.644,70.639-70.657,70.63
	c-39.019-0.008-70.639-31.642-70.633-70.657C185.363,175.403,216.999,143.781,256.013,143.79z"/>
<g>
	<path style="fill:#0B3CA0;" d="M256.002,143.79c0,39.008,31.615,70.637,70.629,70.645c0.004,0,0.009,0,0.015,0
		c0-39.011-31.62-70.638-70.633-70.645C256.009,143.79,256.005,143.79,256.002,143.79z"/>
	<path style="fill:#0B3CA0;" d="M256,143.804c0-0.005,0-0.009,0-0.014c-39.008,0-70.637,31.618-70.645,70.631
		c0,0.004,0,0.008,0,0.015C224.367,214.436,255.993,182.814,256,143.804z"/>
</g>
<path d="M501.551,9.872c-5.77,0-10.449,4.678-10.449,10.449v17.931h-25.991V20.321c0-5.771-4.679-10.449-10.449-10.449
	c-5.771,0-10.449,4.678-10.449,10.449l-0.001,87.031H67.788l-0.001-87.031c0-5.771-4.679-10.449-10.449-10.449
	S46.889,14.55,46.889,20.321v17.931H20.898V20.321c0-5.771-4.678-10.449-10.449-10.449S0,14.55,0,20.321l0.002,471.359
	c0,5.77,4.678,10.449,10.449,10.449c5.77,0,10.449-4.679,10.449-10.449v-17.931h25.992v17.931c0,5.77,4.679,10.449,10.449,10.449
	s10.449-4.679,10.449-10.449v-87.031h376.42v87.031c0,5.77,4.679,10.449,10.449,10.449c5.771,0,10.449-4.679,10.449-10.449v-17.931
	H491.1v17.931c0,5.77,4.679,10.449,10.449,10.449c5.771,0,10.451-4.679,10.451-10.449V20.321
	C512,14.551,507.321,9.872,501.551,9.872z M465.11,197.349h25.991v48.202H465.11V197.349z M465.11,266.449h25.991v48.202h-25.992
	L465.11,266.449z M491.102,176.451H465.11l0.001-48.202h25.991V176.451z M465.109,335.55H491.1v48.202h-25.992L465.109,335.55z
	 M491.102,59.15v48.201H465.11l0.001-48.201C465.111,59.15,491.102,59.15,491.102,59.15z M46.89,245.552H20.899v-48.202H46.89
	V245.552z M20.899,266.449H46.89l0.001,48.202H20.899V266.449z M46.889,128.249l0.001,48.202H20.899l-0.001-48.202H46.889z
	 M20.899,335.55h25.992v48.202H20.9L20.899,335.55z M46.889,59.15l0.001,48.201H20.898V59.15
	C20.898,59.15,46.889,59.15,46.889,59.15z M20.9,452.851V404.65h25.992v48.201H20.9z M157.116,383.752
	c0.066-34.956,28.528-63.375,63.516-63.375h70.762c34.963,0.006,63.413,28.421,63.49,63.375H157.116z M444.21,383.752h-68.432
	c-0.075-46.474-37.894-84.266-84.382-84.273h-70.781c-46.492,0-84.326,37.795-84.393,84.273H67.79l-0.002-127.751V128.249h376.424
	v127.751L444.21,383.752z M465.108,452.851V404.65H491.1v48.201H465.108z"/>
<path d="M293.161,452.851h-5.525c-5.77,0-10.449,4.679-10.449,10.449s4.679,10.449,10.449,10.449h5.525
	c5.77,0,10.449-4.679,10.449-10.449S298.931,452.851,293.161,452.851z"/>
<path d="M413.943,452.851h-80.865c-5.77,0-10.449,4.679-10.449,10.449s4.679,10.449,10.449,10.449h80.865
	c5.77,0,10.449-4.679,10.449-10.449S419.714,452.851,413.943,452.851z"/>
<path d="M256.008,133.341c-0.002,0-0.004,0-0.006,0c-0.001,0-0.002,0-0.002,0c-0.002,0-0.004,0-0.005,0
	c-44.704,0-81.081,36.372-81.089,81.078c0,0.004,0,0.007,0,0.011c0,0.001,0,0.003,0,0.005c0,0.006,0.001,0.01,0.001,0.017
	c0.009,44.699,36.374,81.066,81.078,81.076c0.001,0,0.022,0,0.022,0c44.699,0,81.076-36.371,81.087-81.077
	c0.005-21.661-8.426-42.028-23.74-57.347C298.042,141.787,277.686,133.349,256.008,133.341z M315.086,202.861
	c-23.932-4.677-42.828-23.577-47.505-47.509c11.67,2.262,22.403,7.933,30.994,16.526
	C307.161,180.468,312.827,191.196,315.086,202.861z M244.423,155.368c-4.681,23.921-23.57,42.803-47.489,47.484
	C201.615,178.937,220.5,160.052,244.423,155.368z M256.007,274.629h-0.018c-29.902-0.006-54.767-21.928-59.401-50.541
	c25.503-3.552,47.238-19.003,59.411-40.558c12.171,21.549,33.904,37.001,59.411,40.556
	C310.776,252.704,285.905,274.629,256.007,274.629z"/>
</svg>