<?xml version="1.0" encoding="iso-8859-1"?>
<!-- Uploaded to: SVG Repo, www.svgrepo.com, Generator: SVG Repo Mixer Tools -->
<svg version="1.1" id="Layer_1" xmlns="http://www.w3.org/2000/svg" xmlns:xlink="http://www.w3.org/1999/xlink" 
	 viewBox="0 0 392.663 392.663" xml:space="preserve">
<path style="fill:#56ACE0;" d="M179.2,71.628H32.711c-6.012,0-10.925,4.848-10.925,10.925v277.333
	c0,6.012,4.848,10.925,10.925,10.925H179.2c6.012,0,10.925-4.848,10.925-10.925V82.489C190.061,76.477,185.212,71.628,179.2,71.628z
	"/>
<path style="fill:#FFFFFF;" d="M303.968,21.851c-36.784,0-66.78,24.501-66.78,54.626c0,10.796,3.943,21.333,11.442,30.384
	c2.715,3.232,3.232,7.822,1.487,11.572l-8.792,18.618l27.345-10.925c2.715-1.034,5.301-1.034,7.822-0.065
	c8.727,3.232,18.036,4.913,27.604,4.913c36.784,0,66.78-24.501,66.78-54.626C370.747,46.352,340.752,21.851,303.968,21.851z"/>
<path style="fill:#194F82;" d="M303.968,0.065c-48.808,0-88.566,34.327-88.566,76.412c0,13.705,4.202,26.893,12.154,38.659
	l-15.709,33.099V82.554c0-18.036-14.675-32.711-32.711-32.711H32.711C14.675,49.713,0,64.453,0,82.489v277.398
	c0,18.036,14.675,32.711,32.711,32.711H179.2c18.036,0,32.711-14.675,32.711-32.711V165.56c2.844,2.651,7.046,3.943,11.313,2.263
	l49.713-19.782c9.956,3.232,20.428,4.848,31.16,4.848c48.808,0,88.566-34.327,88.566-76.412
	C392.533,34.392,352.84,0.065,303.968,0.065z M190.061,359.887c0,6.012-4.848,10.925-10.925,10.925H32.711
	c-6.012,0-10.925-4.848-10.925-10.925V82.489c0-6.012,4.848-10.925,10.925-10.925H179.2c6.012,0,10.925,4.848,10.925,10.925
	L190.061,359.887L190.061,359.887z M303.968,131.038c-9.503,0-18.747-1.616-27.604-4.913c-2.521-0.905-5.107-0.905-7.822,0.065
	l-27.345,10.925l8.792-18.618c1.745-3.814,1.228-8.339-1.487-11.572c-7.434-9.051-11.442-19.523-11.442-30.384
	c0-30.125,29.931-54.626,66.78-54.626c36.784,0,66.78,24.501,66.78,54.626C370.747,106.537,340.752,131.038,303.968,131.038z"/>
<path style="fill:#FFC10D;" d="M329.503,66.069c0-5.042-4.073-9.051-9.051-9.051c-3.038,0-5.883,1.552-7.564,4.073
	c-5.107,7.176-14.352,5.883-18.23,0c-1.681-2.521-4.461-4.073-7.564-4.073c-5.042,0-9.051,4.073-9.051,9.051
	c0,6.271,12.412,21.269,25.665,33.487C318.061,86.109,329.503,71.628,329.503,66.069z"/>
<g>
	<path style="fill:#194F82;" d="M320.453,35.232c-6.012,0-11.83,1.745-16.679,4.848c-4.848-3.168-10.667-4.848-16.679-4.848
		c-17.002,0-30.836,13.834-30.836,30.836c0,21.204,31.095,48.549,40.598,56.436c3.62,3.232,10.602,3.232,13.964-0.065
		c9.503-7.952,40.469-35.685,40.469-56.307C351.289,49.067,337.455,35.232,320.453,35.232z M278.044,66.069
		c0-5.042,4.073-9.051,9.051-9.051c3.038,0,5.883,1.552,7.564,4.073c3.879,5.883,13.123,7.176,18.23,0
		c1.681-2.521,4.461-4.073,7.564-4.073c5.042,0,9.051,4.073,9.051,9.051c0,5.56-11.442,20.105-25.729,33.487
		C290.457,87.273,278.044,72.339,278.044,66.069z"/>
	<path style="fill:#194F82;" d="M163.297,241.907h-14.61c-6.012,0-10.925,4.848-10.925,10.925c0,6.012,4.848,10.925,10.925,10.925
		h14.61c6.012,0,10.925-4.848,10.925-10.925C174.158,246.82,169.244,241.907,163.297,241.907z"/>
	<path style="fill:#194F82;" d="M163.297,283.475h-14.61c-6.012,0-10.925,4.848-10.925,10.925s4.848,10.925,10.925,10.925h14.61
		c6.012,0,10.925-4.848,10.925-10.925C174.158,288.388,169.244,283.475,163.297,283.475z"/>
	<path style="fill:#194F82;" d="M163.297,324.978h-14.61c-6.012,0-10.925,4.848-10.925,10.925c0,6.012,4.848,10.925,10.925,10.925
		h14.61c6.012,0,10.925-4.848,10.925-10.925C174.158,329.956,169.244,324.978,163.297,324.978z"/>
</g>
<rect x="59.539" y="109.317" style="fill:#FFC10D;" width="92.703" height="84.622"/>
<g>
	<path style="fill:#194F82;" d="M163.297,87.531H48.679c-6.012,0-10.925,4.848-10.925,10.925v106.408
		c0,6.012,4.848,10.925,10.925,10.925h114.618c6.012,0,10.925-4.848,10.925-10.925V98.457
		C174.158,92.38,169.244,87.531,163.297,87.531z M152.307,193.939H59.539v-84.622h92.768V193.939z"/>
	<path style="fill:#194F82;" d="M63.289,241.907h-14.61c-6.012,0-10.925,4.848-10.925,10.925c0,6.012,4.848,10.925,10.925,10.925
		h14.61c6.012,0,10.925-4.848,10.925-10.925C74.214,246.756,69.236,241.907,63.289,241.907z"/>
	<path style="fill:#194F82;" d="M113.261,241.907h-14.61c-6.012,0-10.925,4.848-10.925,10.925c0,6.012,4.848,10.925,10.925,10.925
		h14.61c6.012,0,10.925-4.848,10.925-10.925C124.186,246.82,119.208,241.907,113.261,241.907z"/>
	<path style="fill:#194F82;" d="M63.289,283.475h-14.61c-6.012,0-10.925,4.848-10.925,10.925s4.848,10.925,10.925,10.925h14.61
		c6.012,0,10.925-4.848,10.925-10.925C74.149,288.388,69.236,283.475,63.289,283.475z"/>
	<path style="fill:#194F82;" d="M113.261,283.475h-14.61c-6.012,0-10.925,4.848-10.925,10.925s4.848,10.925,10.925,10.925h14.61
		c6.012,0,10.925-4.848,10.925-10.925C124.186,288.388,119.208,283.475,113.261,283.475z"/>
	<path style="fill:#194F82;" d="M63.289,324.978h-14.61c-6.012,0-10.925,4.848-10.925,10.925c0,6.012,4.848,10.925,10.925,10.925
		h14.61c6.012,0,10.925-4.848,10.925-10.925C74.149,329.956,69.236,324.978,63.289,324.978z"/>
	<path style="fill:#194F82;" d="M113.261,324.978h-14.61c-6.012,0-10.925,4.848-10.925,10.925c0,6.012,4.848,10.925,10.925,10.925
		h14.61c6.012,0,10.925-4.848,10.925-10.925C124.186,329.956,119.208,324.978,113.261,324.978z"/>
	<path style="fill:#194F82;" d="M87.079,144.226h37.818c6.012,0,10.925-4.848,10.925-10.925c0-6.077-4.848-10.925-10.925-10.925
		H87.079c-6.012,0-10.925,4.848-10.925,10.925C76.154,139.378,81.067,144.226,87.079,144.226z"/>
	<path style="fill:#194F82;" d="M87.079,181.333h37.818c6.012,0,10.925-4.848,10.925-10.925s-4.848-10.925-10.925-10.925H87.079
		c-6.012,0-10.925,4.848-10.925,10.925S81.067,181.333,87.079,181.333z"/>
</g>
</svg>